
        <svg xmlns="http://www.w3.org/2000/svg" xmlns:xlink="http://www.w3.org/1999/xlink" version="1.1" width="3171.2527413972607" 
        height="1359.8407468572125" viewBox="0 0 3171.2527413972607 1359.8407468572125">
			
			<g transform="scale(8.562637069863039) translate(10, 10)">
				<defs id="SvgjsDefs1779"></defs><g id="SvgjsG1780" featureKey="DhFEHj-0" transform="matrix(6.764591972281735,0,0,6.764591972281735,-10.95863660814589,-33.822953410191055)" fill="#55c49a"><path d="M12.2 16.96 q0.3 0 0.5 0.21 t0.2 0.51 l0 1.46 q0 0.28 -0.2 0.49 t-0.5 0.21 l-9.88 0 q-0.28 0 -0.49 -0.21 t-0.21 -0.49 l0 -1.46 q0 -0.3 0.21 -0.51 t0.49 -0.21 l9.88 0 z M2.32 13.86 q-0.28 0 -0.49 -0.21 t-0.21 -0.49 l0 -1.5 q0 -0.28 0.21 -0.49 t0.49 -0.21 l8.98 0 q0.3 0 0.51 0.21 t0.21 0.49 l0 1.5 q0 0.28 -0.21 0.49 t-0.51 0.21 l-8.98 0 z M12.2 5 q0.3 0 0.5 0.21 t0.2 0.49 l0 1.46 q0 0.3 -0.2 0.51 t-0.5 0.21 l-9.88 0 q-0.28 0 -0.49 -0.21 t-0.21 -0.51 l0 -1.46 q0 -0.28 0.21 -0.49 t0.49 -0.21 l9.88 0 z M26.18 7.140000000000001 q0 0.28 -0.16 0.44 l-7.72 9.3 l7.2 0 q0.28 0 0.48 0.21 t0.2 0.49 l0 1.4 q0 0.28 -0.2 0.49 t-0.48 0.21 l-10.52 0 q-0.28 0 -0.49 -0.21 t-0.21 -0.49 l0 -1.42 q0 -0.24 0.16 -0.44 l7.72 -9.32 l-7.06 0 q-0.28 0 -0.49 -0.21 t-0.21 -0.49 l0 -1.4 q0 -0.28 0.21 -0.49 t0.49 -0.21 l10.4 0 q0.28 0 0.48 0.21 t0.2 0.49 l0 1.44 z M35.16 5 q2.38 0 3.84 1.37 t1.46 3.65 t-1.44 3.64 t-3.86 1.36 l-3.82 0 l0 4.08 q0 0.28 -0.21 0.49 t-0.49 0.21 l-1.52 0 q-0.28 0 -0.49 -0.21 t-0.21 -0.49 l0 -6.2 q0 -0.28 0.21 -0.49 t0.49 -0.21 l5.92 0 q1.34 0 1.92 -0.58 q0.58 -0.52 0.58 -1.58 t-0.6 -1.63 t-1.9 -0.57 l-5.92 0 q-0.28 0 -0.49 -0.21 t-0.21 -0.49 l0 -1.44 q0 -0.28 0.21 -0.49 t0.49 -0.21 l6.04 0 z M53.36 7.140000000000001 q0 0.28 -0.16 0.44 l-7.72 9.3 l7.2 0 q0.28 0 0.48 0.21 t0.2 0.49 l0 1.4 q0 0.28 -0.2 0.49 t-0.48 0.21 l-10.52 0 q-0.28 0 -0.49 -0.21 t-0.21 -0.49 l0 -1.42 q0 -0.24 0.16 -0.44 l7.72 -9.32 l-7.06 0 q-0.28 0 -0.49 -0.21 t-0.21 -0.49 l0 -1.4 q0 -0.28 0.21 -0.49 t0.49 -0.21 l10.4 0 q0.28 0 0.48 0.21 t0.2 0.49 l0 1.44 z"></path></g><g id="SvgjsG1781" featureKey="aJrulJ-0" transform="matrix(1.7784552007964483,0,0,1.7784552007964483,175.57723634818296,102.70833554240832)" fill="#e65f31"><path d="M9.08 20.3 c-2.26 0 -4.2 -0.8 -5.82 -2.38 c-1.64 -1.58 -2.46 -3.5 -2.46 -5.72 s0.82 -4.14 2.46 -5.72 c1.62 -1.58 3.56 -2.38 5.82 -2.38 c2.28 0 4.24 0.8 5.86 2.38 c1.22 1.18 1.98 2.56 2.26 4.1 l-4.18 0 c-0.2 -0.52 -0.52 -1 -0.92 -1.4 c-0.82 -0.82 -1.82 -1.22 -3.02 -1.22 c-1.18 0 -2.18 0.42 -3 1.24 s-1.24 1.82 -1.24 3 s0.42 2.18 1.24 3 s1.82 1.24 3 1.24 c1.2 0 2.2 -0.42 3.02 -1.24 c0.56 -0.56 0.92 -1.18 1.1 -1.92 l4.08 0 c-0.22 1.78 -0.98 3.32 -2.34 4.64 c-1.62 1.58 -3.58 2.38 -5.86 2.38 z M28.5595 20.3 c-2.26 0 -4.2 -0.8 -5.82 -2.38 c-1.64 -1.58 -2.46 -3.5 -2.46 -5.72 s0.82 -4.14 2.46 -5.72 c1.62 -1.58 3.56 -2.38 5.82 -2.38 c2.28 0 4.24 0.8 5.86 2.38 s2.42 3.5 2.42 5.72 s-0.8 4.14 -2.42 5.72 s-3.58 2.38 -5.86 2.38 z M28.5595 16.44 c1.2 0 2.2 -0.42 3.02 -1.24 s1.22 -1.82 1.22 -3 s-0.4 -2.2 -1.22 -3.02 s-1.82 -1.22 -3.02 -1.22 c-1.18 0 -2.18 0.42 -3 1.24 s-1.24 1.82 -1.24 3 s0.42 2.18 1.24 3 s1.82 1.24 3 1.24 z M39.839 20 l0 -15.6 l7.24 0 c1.58 0 2.92 0.36 4.06 1.08 s1.98 1.66 2.52 2.82 s0.8 2.46 0.8 3.9 c0 1.46 -0.26 2.76 -0.8 3.92 s-1.38 2.1 -2.52 2.8 c-1.14 0.72 -2.48 1.08 -4.06 1.08 l-7.24 0 z M43.839 16.14 l2.94 0 c1.16 0 2.06 -0.36 2.7 -1.08 c0.62 -0.7 0.94 -1.66 0.94 -2.86 s-0.32 -2.16 -0.94 -2.86 c-0.64 -0.7 -1.54 -1.06 -2.7 -1.06 l-2.94 0 l0 7.86 z M57.4585 20 l0 -15.6 l4 0 l0 15.6 l-4 0 z M64.458 20 l0 -15.6 l3.4 0 l6.96 8.72 l0 -8.72 l3.98 0 l0 15.6 l-3.38 0 l-6.96 -8.7 l0 8.7 l-4 0 z M90.0775 20.3 c-2.26 0 -4.2 -0.8 -5.82 -2.38 c-1.64 -1.58 -2.46 -3.5 -2.46 -5.72 s0.82 -4.14 2.46 -5.72 c1.62 -1.58 3.56 -2.38 5.82 -2.38 c2.28 0 4.24 0.8 5.86 2.38 c1.22 1.18 1.98 2.56 2.26 4.1 l-4.18 0 c-0.2 -0.52 -0.52 -1 -0.92 -1.4 c-0.82 -0.82 -1.82 -1.22 -3.02 -1.22 c-1.18 0 -2.18 0.42 -3 1.24 s-1.24 1.82 -1.24 3 s0.42 2.18 1.24 3 s1.82 1.24 3 1.24 c1.2 0 2.2 -0.42 3.02 -1.24 l0.24 -0.26 l-3.8 0 l0.02 -3.02 l8.72 0 l0 1.36 c-0.22 1.78 -0.98 3.32 -2.34 4.64 c-1.62 1.58 -3.58 2.38 -5.86 2.38 z"></path></g>
			</g>
		</svg>
	